<?xml version="1.0" encoding="UTF-8"?>
<svg width="24px" height="24px" viewBox="0 0 24 24" version="1.1" xmlns="http://www.w3.org/2000/svg" xmlns:xlink="http://www.w3.org/1999/xlink">
    <!-- Generator: Sketch 53.2 (72643) - https://sketchapp.com -->
    <title>Artboard</title>
    <desc>Created with Sketch.</desc>
    <g id="Artboard" stroke="none" stroke-width="1" fill="none" fill-rule="evenodd">
        <g id="Group-3">
            <rect id="Rectangle" x="0" y="0" width="24" height="24"></rect>
            <path d="M12,21 C16.9705627,21 21,16.9705627 21,12 C21,7.02943725 16.9705627,3 12,3 C7.02943725,3 3,7.02943725 3,12 C3,16.9705627 7.02943725,21 12,21 Z M12,23 C5.92486775,23 1,18.0751322 1,12 C1,5.92486775 5.92486775,1 12,1 C18.0751322,1 23,5.92486775 23,12 C23,18.0751322 18.0751322,23 12,23 Z M18.25,9 L18.25,15 C18.25,15.3588568 18.0577139,15.6902003 17.7461389,15.8682431 L12.4961389,18.8682431 C12.2062709,19.0339345 11.8349815,19.0574548 11.5038611,18.8682431 L6.25386106,15.8682431 C5.94228606,15.6902003 5.75,15.3588568 5.75,15 L5.75,9 C5.75,8.66185196 5.91795369,8.32370393 6.25386106,8.13175686 L11.5038611,5.13175686 C11.8112937,4.95608105 12.1887063,4.95608105 12.4961389,5.13175686 L17.7461389,8.13175686 C18.0820463,8.32370393 18.25,8.66185196 18.25,9 Z M8.76556444,9 L12,10.8482489 L15.2344356,9 L12,7.15175111 L8.76556444,9 Z M16.25,14.4196775 L16.25,10.7231797 L13,12.5803225 L13,16.2768203 L16.25,14.4196775 Z M7.75,14.4196775 L11,16.2768203 L11,12.5803225 L7.75,10.7231797 L7.75,14.4196775 Z" id="Combined-Shape" fill="#000000" fill-rule="nonzero"></path>
        </g>
    </g>
</svg>