<?xml version="1.0" encoding="UTF-8"?>
<svg width="24px" height="24px" viewBox="0 0 24 24" version="1.1" xmlns="http://www.w3.org/2000/svg" xmlns:xlink="http://www.w3.org/1999/xlink">
    <!-- Generator: Sketch 53.2 (72643) - https://sketchapp.com -->
    <title>Artboard</title>
    <desc>Created with Sketch.</desc>
    <g id="Artboard" stroke="none" stroke-width="1" fill="none" fill-rule="evenodd" opacity="0.8">
        <g id="Group-3-Copy">
            <rect id="Rectangle" x="0" y="0" width="24" height="24"></rect>
            <g id="Group-11" transform="translate(1.000000, 1.000000)" fill="#000000" fill-rule="nonzero">
                <path d="M11,20 C15.9705627,20 20,15.9705627 20,11 C20,6.02943725 15.9705627,2 11,2 C6.02943725,2 2,6.02943725 2,11 C2,15.9705627 6.02943725,20 11,20 Z M11,22 C4.92486775,22 -5.32907052e-15,17.0751322 -5.32907052e-15,11 C-5.32907052e-15,4.92486775 4.92486775,0 11,0 C17.0751322,0 22,4.92486775 22,11 C22,17.0751322 17.0751322,22 11,22 Z" id="Oval-Copy"></path>
                <path d="M7.76556444,8 L11,9.84824889 L14.2344356,8 L11,6.15175111 L7.76556444,8 Z M11.4961389,4.13175686 L16.7461389,7.13175686 C17.4179537,7.515651 17.4179537,8.484349 16.7461389,8.86824314 L11.4961389,11.8682431 C11.1887063,12.043919 10.8112937,12.043919 10.5038611,11.8682431 L5.25386106,8.86824314 C4.58204631,8.484349 4.58204631,7.515651 5.25386106,7.13175686 L10.5038611,4.13175686 C10.8112937,3.95608105 11.1887063,3.95608105 11.4961389,4.13175686 Z" id="Rectangle"></path>
                <path d="M6.75,13.4196775 L10,15.2768203 L10,11.5803225 L6.75,9.72317968 L6.75,13.4196775 Z M6.24613894,7.13175686 L11.4961389,10.1317569 C11.8077139,10.3097997 12,10.6411432 12,11 L12,17 C12,17.7678227 11.1705178,18.2491899 10.5038611,17.8682431 L5.25386106,14.8682431 C4.94228606,14.6902003 4.75,14.3588568 4.75,14 L4.75,8 C4.75,7.23217733 5.57948217,6.75081013 6.24613894,7.13175686 Z" id="Rectangle-Copy-31"></path>
                <path d="M15.25,13.4196775 L15.25,9.72317968 L12,11.5803225 L12,15.2768203 L15.25,13.4196775 Z M15.7538611,7.13175686 C16.4205178,6.75081013 17.25,7.23217733 17.25,8 L17.25,14 C17.25,14.3588568 17.0577139,14.6902003 16.7461389,14.8682431 L11.4961389,17.8682431 C10.8294822,18.2491899 10,17.7678227 10,17 L10,11 C10,10.6411432 10.1922861,10.3097997 10.5038611,10.1317569 L15.7538611,7.13175686 Z" id="Shape"></path>
            </g>
        </g>
    </g>
</svg>