<?xml version="1.0" encoding="UTF-8"?>
<svg width="24px" height="24px" viewBox="0 0 24 24" version="1.1" xmlns="http://www.w3.org/2000/svg" xmlns:xlink="http://www.w3.org/1999/xlink">
    <!-- Generator: Sketch 53.2 (72643) - https://sketchapp.com -->
    <title>Artboard</title>
    <desc>Created with Sketch.</desc>
    <g id="Artboard" stroke="none" stroke-width="1" fill="none" fill-rule="evenodd">
        <g id="ic_github_black_24dp">
            <path d="M12,2 C6.48,2 2,6.59 2,12.25 C2,16.78 4.87,20.62 8.84,21.98 C9.34,22.07 9.52,21.76 9.52,21.49 C9.52,21.25 9.51,20.6 9.51,19.75 C6.73,20.37 6.14,18.38 6.14,18.38 C5.69,17.2 5.03,16.88 5.03,16.88 C4.12,16.24 5.1,16.26 5.1,16.26 C6.1,16.33 6.63,17.32 6.63,17.32 C7.52,18.89 8.97,18.43 9.54,18.17 C9.63,17.51 9.89,17.06 10.17,16.8 C7.95,16.54 5.61,15.66 5.61,11.73 C5.61,10.61 6,9.7 6.64,8.98 C6.54,8.72 6.19,7.68 6.74,6.27 C6.74,6.27 7.58,5.99 9.49,7.32 C10.29,7.09 11.14,6.98 11.99,6.98 C12.84,6.98 13.69,7.1 14.49,7.32 C16.4,5.99 17.24,6.27 17.24,6.27 C17.79,7.68 17.44,8.72 17.34,8.98 C17.98,9.7 18.37,10.61 18.37,11.73 C18.37,15.67 16.03,16.54 13.8,16.79 C14.16,17.11 14.48,17.73 14.48,18.69 C14.48,20.06 14.47,21.17 14.47,21.5 C14.47,21.77 14.65,22.09 15.16,21.99 C19.13,20.63 21.99,16.79 21.99,12.26 C22,6.59 17.52,2 12,2" id="XMLID_290_" fill="#000000" fill-rule="nonzero"></path>
            <rect id="XMLID_289_" x="0" y="0" width="24" height="24"></rect>
        </g>
    </g>
</svg>