{
  "buffers":[
    {
      "uri":"Lantern.bin",
      "byteLength":115264
    }
  ],
  "asset":{
    "version":"2.0",
    "generator":"gltfpack 0.13"
  },
  "extensionsUsed":[
    "KHR_mesh_quantization",
    "KHR_texture_transform"
  ],
  "extensionsRequired":[
    "KHR_mesh_quantization"
  ],
  "bufferViews":[
    {
      "buffer":0,
      "byteOffset":0,
      "byteLength":16580,
      "byteStride":4,
      "target":34962
    },
    {
      "buffer":0,
      "byteOffset":16580,
      "byteLength":16580,
      "byteStride":4,
      "target":34962
    },
    {
      "buffer":0,
      "byteOffset":33160,
      "byteLength":16580,
      "byteStride":4,
      "target":34962
    },
    {
      "buffer":0,
      "byteOffset":49740,
      "byteLength":33160,
      "byteStride":8,
      "target":34962
    },
    {
      "buffer":0,
      "byteOffset":82900,
      "byteLength":32364,
      "target":34963
    }
  ],
  "accessors":[
    {
      "bufferView":0,
      "byteOffset":0,
      "componentType":5123,
      "count":4145,
      "type":"VEC2"
    },
    {
      "bufferView":1,
      "byteOffset":0,
      "componentType":5120,
      "count":4145,
      "type":"VEC3",
      "normalized":true
    },
    {
      "bufferView":2,
      "byteOffset":0,
      "componentType":5120,
      "count":4145,
      "type":"VEC4",
      "normalized":true
    },
    {
      "bufferView":3,
      "byteOffset":0,
      "componentType":5123,
      "count":4145,
      "type":"VEC3",
      "min":[
        0,
        0,
        0
      ],
      "max":[
        9889,
        16383,
        2957
      ]
    },
    {
      "bufferView":4,
      "byteOffset":0,
      "componentType":5123,
      "count":16182,
      "type":"SCALAR"
    }
  ],
  "images":[
    {
      "uri":"Lantern_baseColor.png"
    },
    {
      "uri":"Lantern_roughnessMetallic.png"
    },
    {
      "uri":"Lantern_normal.png"
    },
    {
      "uri":"Lantern_emissive.png"
    }
  ],
  "textures":[
    {
      "source":0
    },
    {
      "source":1
    },
    {
      "source":2
    },
    {
      "source":3
    }
  ],
  "materials":[
    {
      "name":"LanternPost_Mat",
      "pbrMetallicRoughness":{
        "baseColorTexture":{
          "index":0,
          "texCoord":0,
          "extensions":{
            "KHR_texture_transform":{
              "offset":[
                0.0107366741,
                0.00746524334
              ],
              "scale":[
                0.000239704794,
                0.000240597452
              ]
            }
          }
        },
        "metallicRoughnessTexture":{
          "index":1,
          "texCoord":0,
          "extensions":{
            "KHR_texture_transform":{
              "offset":[
                0.0107366741,
                0.00746524334
              ],
              "scale":[
                0.000239704794,
                0.000240597452
              ]
            }
          }
        }
      },
      "normalTexture":{
        "index":2,
        "texCoord":0,
        "extensions":{
          "KHR_texture_transform":{
            "offset":[
              0.0107366741,
              0.00746524334
            ],
            "scale":[
              0.000239704794,
              0.000240597452
            ]
          }
        }
      },
      "emissiveTexture":{
        "index":3,
        "texCoord":0,
        "extensions":{
          "KHR_texture_transform":{
            "offset":[
              0.0107366741,
              0.00746524334
            ],
            "scale":[
              0.000239704794,
              0.000240597452
            ]
          }
        }
      },
      "emissiveFactor":[
        1,
        1,
        1
      ]
    }
  ],
  "meshes":[
    {
      "primitives":[
        {
          "attributes":{
            "TEXCOORD_0":0,
            "NORMAL":1,
            "TANGENT":2,
            "POSITION":3
          },
          "mode":4,
          "indices":4,
          "material":0
        }
      ]
    }
  ],
  "nodes":[
    {
      "mesh":0,
      "translation":[
        -3.92244506,
        0.18392086,
        -2.31570983
      ],
      "scale":[
        0.00156651519,
        0.00156651519,
        0.00156651519
      ]
    }
  ],
  "scenes":[
    {
      "nodes":[
        0
      ]
    }
  ],
  "scene":0
}